<svg height="24" width="24" xmlns="http://www.w3.org/2000/svg" xmlns:xlink="http://www.w3.org/1999/xlink">
  <filter id="a" color-interpolation-filters="sRGB" height="1.339414" width="1.819394" x="-.409697" y="-.169707">
    <feGaussianBlur stdDeviation="1.2071175"/>
  </filter>
  <path d="m9.4643591 9.0000002 2.5356409-.0000002.000214 8h-2.5356409l3.5355339 4.535534 3.535534-4.535534h-2.535641l-.000214-7.9999997 2.535641-.0000001-3.53532-4.5355342" fill="white" filter="url(#a)" opacity=".5" stroke="#000" stroke-width="2" transform="matrix(0 -1 1 0 .000076 26.000032)"/>
  <path d="m8.0000763 15.535673-.0000005-2.535642 8.0000002-.000214v2.535641l4.535534-3.535534-4.535534-3.535534v2.535641l-7.9999998.000214-.0000005-2.5356403-4.5355339 3.5353193" fill="white" stroke="#fff" stroke-width="2"/>
  <path d="m8.0000763 15.535673-.0000005-2.535642 8.0000002-.000214v2.535641l4.535534-3.535534-4.535534-3.535534v2.535641l-7.9999998.000214-.0000005-2.5356403-4.5355339 3.5353193" fill="white" fill-rule="evenodd"/>
</svg>