<svg height="24" width="24" xmlns="http://www.w3.org/2000/svg" xmlns:xlink="http://www.w3.org/1999/xlink"><filter id="a" color-interpolation-filters="sRGB" height="1.339414" width="1.819394" x="-.409697" y="-.169707"><feGaussianBlur stdDeviation="1.2071175"/></filter><path d="m9.4643591 9.0000002 2.5356409-.0000002.000214 8h-2.5356409l3.5355339 4.535534 3.535534-4.535534h-2.535641l-.000214-7.9999997 2.535641-.0000001-3.53532-4.5355342z" fill-rule="evenodd" filter="url(#a)" opacity=".5" stroke="#000" stroke-width="2"/><path d="m8.4643591 8.0000002 2.5356409-.0000002.000214 8h-2.5356409l3.5355339 4.535534 3.535534-4.535534h-2.535641l-.000214-7.9999997 2.535641-.0000001-3.53532-4.5355342z" fill="none" stroke="#fff" stroke-width="2"/><path d="m8.4643591 8.0000002 2.5356409-.0000002.000214 8h-2.5356409l3.5355339 4.535534 3.535534-4.535534h-2.535641l-.000214-7.9999997 2.535641-.0000001-3.53532-4.5355342z" fill-rule="evenodd"/></svg>